<svg width="20" height="20" viewBox="0 0 20 20" fill="none" xmlns="http://www.w3.org/2000/svg">
<g id="Frame 45">
<path id="&#226;&#154;&#160;&#239;&#184;&#143;" d="M2.26993 17.9911C1.26595 17.9911 0.642113 16.9001 1.15135 16.0349L8.88141 2.9006C9.38332 2.0478 10.6167 2.0478 11.1186 2.9006L18.8487 16.0349C19.3579 16.9001 18.734 17.9911 17.7301 17.9911H2.26993ZM10 16.0885C10.3786 16.0885 10.7006 15.9558 10.9661 15.6903C11.2365 15.4199 11.3717 15.0954 11.3717 14.7168C11.3717 14.3382 11.2365 14.0162 10.9661 13.7507C10.7006 13.4803 10.3786 13.3451 10 13.3451C9.62144 13.3451 9.29695 13.4803 9.02655 13.7507C8.76106 14.0162 8.62832 14.3382 8.62832 14.7168C8.62832 15.0954 8.76106 15.4199 9.02655 15.6903C9.29695 15.9558 9.62144 16.0885 10 16.0885ZM9.07649 10.7791C9.08974 11.2796 9.4993 11.6785 10 11.6785C10.5007 11.6785 10.9103 11.2796 10.9235 10.7791L11.0051 7.6958C11.0201 7.13027 10.5657 6.66372 10 6.66372C9.43427 6.66372 8.9799 7.13027 8.99487 7.6958L9.07649 10.7791Z" fill="#EB0909"/>
</g>
</svg>
