<svg width="24" height="24" viewBox="0 0 24 24" fill="none" xmlns="http://www.w3.org/2000/svg">
<g id="Frame" clip-path="url(#clip0_52_1012)">
<path id="Vector" d="M15.6927 22.333H2.77068C1.24068 22.333 0.000675946 21.228 0.000675946 19.87V3.46395C0.000675946 2.10395 1.24368 1.00195 2.77068 1.00195H21.2307C22.7607 1.00195 24.0007 2.10695 24.0007 3.46395V14.95C24.0007 15.404 23.5877 15.77 23.0777 15.77C22.5677 15.77 22.1547 15.404 22.1547 14.95V3.46395C22.1547 3.00995 21.7387 2.64395 21.2317 2.64395H2.76968C2.25968 2.64395 1.84668 3.01195 1.84668 3.46395V19.87C1.84668 20.324 2.26268 20.69 2.76968 20.69H15.6927C16.2027 20.69 16.6157 21.057 16.6157 21.511C16.6157 21.965 16.2037 22.3309 15.6927 22.3309V22.333ZM0.922676 17.41C0.683049 17.4128 0.450823 17.327 0.270676 17.169C0.185922 17.0977 0.117781 17.0088 0.071033 16.9084C0.0242847 16.8081 6.10352e-05 16.6987 6.10352e-05 16.588C6.10352e-05 16.4772 0.0242847 16.3679 0.071033 16.2675C0.117781 16.1671 0.185922 16.0782 0.270676 16.007L4.86968 11.923C5.71168 11.173 6.99568 10.987 8.06268 11.461L13.0707 13.687C13.244 13.7651 13.436 13.7921 13.6241 13.7648C13.8123 13.7376 13.9887 13.6571 14.1327 13.533L22.4227 6.16295C22.7837 5.84295 23.3697 5.84295 23.7307 6.16295C24.0907 6.48395 24.0907 7.00495 23.7307 7.32495L15.4397 14.695C14.5967 15.443 13.3137 15.63 12.2457 15.155L7.23768 12.93C7.0645 12.852 6.87268 12.8251 6.68474 12.8524C6.4968 12.8797 6.32055 12.96 6.17668 13.084L1.57468 17.17C1.39438 17.3276 1.16217 17.4131 0.922676 17.41ZM7.38568 9.20495C6.73296 9.20416 6.1072 8.94452 5.64566 8.48297C5.18411 8.02143 4.92447 7.39567 4.92368 6.74295C4.92473 6.09041 5.18449 5.46491 5.64601 5.00358C6.10752 4.54225 6.73313 4.28275 7.38568 4.28195C8.03805 4.28301 8.6634 4.54263 9.1247 5.00393C9.58599 5.46523 9.84562 6.09058 9.84668 6.74295C9.84588 7.3955 9.58638 8.02111 9.12505 8.48262C8.66372 8.94413 8.03822 9.20389 7.38568 9.20495ZM7.38568 5.92295C6.93368 5.92295 6.56568 6.29195 6.56568 6.74295C6.56568 7.19395 6.93368 7.56295 7.38568 7.56295C7.83568 7.56295 8.20568 7.19395 8.20568 6.74295C8.20568 6.29195 7.83568 5.92295 7.38568 5.92295ZM19.8977 22.333C19.6802 22.333 19.4716 22.2466 19.3178 22.0928C19.1641 21.939 19.0777 21.7304 19.0777 21.513V16.589C19.0777 16.4813 19.0989 16.3746 19.1401 16.2751C19.1813 16.1756 19.2417 16.0852 19.3178 16.009C19.3939 15.9329 19.4843 15.8725 19.5838 15.8312C19.6833 15.79 19.79 15.7688 19.8977 15.7688C20.0054 15.7688 20.112 15.79 20.2115 15.8312C20.311 15.8725 20.4014 15.9329 20.4776 16.009C20.5537 16.0852 20.6141 16.1756 20.6553 16.2751C20.6965 16.3746 20.7177 16.4813 20.7177 16.589V21.512C20.7177 21.7294 20.6313 21.938 20.4775 22.0918C20.3237 22.2456 20.1152 22.332 19.8977 22.332V22.333ZM23.1797 19.051C22.9711 19.051 22.7703 18.9712 22.6187 18.828L19.8987 16.274L17.1777 18.83C17.0192 18.9789 16.8081 19.0587 16.5907 19.052C16.3734 19.0452 16.1676 18.9524 16.0187 18.794C15.8698 18.6355 15.7899 18.4243 15.7966 18.207C15.8034 17.9896 15.8962 17.7839 16.0547 17.635L18.9317 14.933C19.0484 14.7892 19.1957 14.6733 19.3629 14.5937C19.5301 14.5141 19.713 14.4727 19.8982 14.4727C20.0834 14.4727 20.2662 14.5141 20.4334 14.5937C20.6006 14.6733 20.7479 14.7892 20.8647 14.933L23.7417 17.635C23.8609 17.7476 23.9436 17.8935 23.9791 18.0537C24.0146 18.2138 24.0012 18.381 23.9407 18.5334C23.8801 18.6859 23.7753 18.8168 23.6396 18.909C23.5039 19.0013 23.3437 19.0507 23.1797 19.051Z" fill="white" fill-opacity="0.72"/>
</g>
<defs>
<clipPath id="clip0_52_1012">
<rect width="24" height="24" fill="white"/>
</clipPath>
</defs>
</svg>
